<svg width="60" height="60" viewBox="0 0 60 60" fill="none" xmlns="http://www.w3.org/2000/svg">
<circle cx="30" cy="30" r="30" fill="white"/>
<circle opacity="0.1" cx="30" cy="30" r="30" fill="#3A00DF"/>
<circle opacity="0.1" cx="30" cy="30" r="21" fill="#3A00DF"/>
<path d="M37.5804 30.5C37.5824 30.8073 37.4891 31.1076 37.3133 31.3597C37.1376 31.6117 36.8881 31.8031 36.5991 31.9075L31.7091 33.7091L29.9075 38.5991C29.8014 38.887 29.6096 39.1354 29.3579 39.3109C29.1062 39.4864 28.8068 39.5805 28.5 39.5805C28.1931 39.5805 27.8937 39.4864 27.642 39.3109C27.3903 39.1354 27.1985 38.887 27.0924 38.5991L25.2909 33.7091L20.4008 31.9075C20.113 31.8014 19.8645 31.6096 19.689 31.3579C19.5136 31.1063 19.4195 30.8068 19.4195 30.5C19.4195 30.1932 19.5136 29.8937 19.689 29.6421C19.8645 29.3904 20.113 29.1986 20.4008 29.0925L25.2909 27.2909L27.0924 22.4009C27.1985 22.113 27.3903 21.8646 27.642 21.6891C27.8937 21.5136 28.1931 21.4195 28.5 21.4195C28.8068 21.4195 29.1062 21.5136 29.3579 21.6891C29.6096 21.8646 29.8014 22.113 29.9075 22.4009L31.7091 27.2909L36.5991 29.0925C36.8881 29.1969 37.1376 29.3883 37.3133 29.6403C37.4891 29.8924 37.5824 30.1927 37.5804 30.5ZM32.25 21.5H33.75V23C33.75 23.1989 33.829 23.3897 33.9696 23.5303C34.1103 23.671 34.301 23.75 34.5 23.75C34.6989 23.75 34.8896 23.671 35.0303 23.5303C35.1709 23.3897 35.25 23.1989 35.25 23V21.5H36.75C36.9489 21.5 37.1396 21.421 37.2803 21.2803C37.4209 21.1397 37.5 20.9489 37.5 20.75C37.5 20.5511 37.4209 20.3603 37.2803 20.2197C37.1396 20.079 36.9489 20 36.75 20H35.25V18.5C35.25 18.3011 35.1709 18.1103 35.0303 17.9697C34.8896 17.829 34.6989 17.75 34.5 17.75C34.301 17.75 34.1103 17.829 33.9696 17.9697C33.829 18.1103 33.75 18.3011 33.75 18.5V20H32.25C32.051 20 31.8603 20.079 31.7196 20.2197C31.579 20.3603 31.5 20.5511 31.5 20.75C31.5 20.9489 31.579 21.1397 31.7196 21.2803C31.8603 21.421 32.051 21.5 32.25 21.5ZM40.5 24.5H39.75V23.75C39.75 23.5511 39.6709 23.3603 39.5303 23.2197C39.3896 23.079 39.1989 23 39 23C38.801 23 38.6103 23.079 38.4696 23.2197C38.329 23.3603 38.25 23.5511 38.25 23.75V24.5H37.5C37.301 24.5 37.1103 24.579 36.9696 24.7197C36.829 24.8603 36.75 25.0511 36.75 25.25C36.75 25.4489 36.829 25.6397 36.9696 25.7803C37.1103 25.921 37.301 26 37.5 26H38.25V26.75C38.25 26.9489 38.329 27.1397 38.4696 27.2803C38.6103 27.421 38.801 27.5 39 27.5C39.1989 27.5 39.3896 27.421 39.5303 27.2803C39.6709 27.1397 39.75 26.9489 39.75 26.75V26H40.5C40.6989 26 40.8896 25.921 41.0303 25.7803C41.1709 25.6397 41.25 25.4489 41.25 25.25C41.25 25.0511 41.1709 24.8603 41.0303 24.7197C40.8896 24.579 40.6989 24.5 40.5 24.5Z" fill="#3A00DF"/>
</svg>
